<mxfile host="app.diagrams.net" agent="Mozilla/5.0 (Windows NT 10.0; Win64; x64) AppleWebKit/537.36 (KHTML, like Gecko) Chrome/138.0.0.0 Safari/537.36" version="28.0.4">
  <diagram name="PÃ¡gina-1" id="D6NaWAenAfhu77qTSLJN">
    <mxGraphModel dx="1464" dy="596" grid="1" gridSize="10" guides="1" tooltips="1" connect="1" arrows="1" fold="1" page="1" pageScale="1" pageWidth="827" pageHeight="1169" math="0" shadow="0">
      <root>
        <mxCell id="0" />
        <mxCell id="1" parent="0" />
        <mxCell id="-uGRJMwbaXGkb8_9Z7FO-1" value="Actor" style="shape=umlActor;verticalLabelPosition=bottom;verticalAlign=top;html=1;outlineConnect=0;" vertex="1" parent="1">
          <mxGeometry x="90" y="60" width="30" height="60" as="geometry" />
        </mxCell>
        <mxCell id="-uGRJMwbaXGkb8_9Z7FO-3" value="Interfaz&lt;span style=&quot;white-space: pre;&quot;&gt;&#x9;&lt;/span&gt;" style="rounded=1;whiteSpace=wrap;html=1;verticalAlign=top;" vertex="1" parent="1">
          <mxGeometry x="520" y="65" width="110" height="50" as="geometry" />
        </mxCell>
        <mxCell id="-uGRJMwbaXGkb8_9Z7FO-5" value="contralador&amp;nbsp;" style="whiteSpace=wrap;html=1;verticalAlign=top;rounded=1;" vertex="1" parent="1">
          <mxGeometry x="515" y="300" width="120" height="60" as="geometry" />
        </mxCell>
        <mxCell id="-uGRJMwbaXGkb8_9Z7FO-7" value="1: selecciona el apratede comentarios" style="text;html=1;align=center;verticalAlign=middle;resizable=0;points=[];autosize=1;strokeColor=none;fillColor=none;" vertex="1" parent="1">
          <mxGeometry x="210" y="75" width="230" height="30" as="geometry" />
        </mxCell>
        <mxCell id="-uGRJMwbaXGkb8_9Z7FO-9" value="Base de datos&amp;nbsp;" style="whiteSpace=wrap;html=1;verticalAlign=top;rounded=1;arcSize=25;" vertex="1" parent="1">
          <mxGeometry x="60" y="300" width="120" height="60" as="geometry" />
        </mxCell>
        <mxCell id="-uGRJMwbaXGkb8_9Z7FO-11" value="" style="endArrow=none;html=1;rounded=0;exitX=1;exitY=0.3333333333333333;exitDx=0;exitDy=0;exitPerimeter=0;entryX=0;entryY=0.25;entryDx=0;entryDy=0;" edge="1" parent="1" source="-uGRJMwbaXGkb8_9Z7FO-1" target="-uGRJMwbaXGkb8_9Z7FO-3">
          <mxGeometry width="50" height="50" relative="1" as="geometry">
            <mxPoint x="160" y="150" as="sourcePoint" />
            <mxPoint x="210" y="100" as="targetPoint" />
          </mxGeometry>
        </mxCell>
        <mxCell id="-uGRJMwbaXGkb8_9Z7FO-12" value="" style="endArrow=none;html=1;rounded=0;exitX=0.5;exitY=1;exitDx=0;exitDy=0;entryX=0.5;entryY=0;entryDx=0;entryDy=0;" edge="1" parent="1" source="-uGRJMwbaXGkb8_9Z7FO-3" target="-uGRJMwbaXGkb8_9Z7FO-5">
          <mxGeometry width="50" height="50" relative="1" as="geometry">
            <mxPoint x="580" y="162" as="sourcePoint" />
            <mxPoint x="980" y="160" as="targetPoint" />
          </mxGeometry>
        </mxCell>
        <mxCell id="-uGRJMwbaXGkb8_9Z7FO-13" value="" style="endArrow=none;html=1;rounded=0;exitX=1;exitY=0.5;exitDx=0;exitDy=0;entryX=0;entryY=0.5;entryDx=0;entryDy=0;" edge="1" parent="1" source="-uGRJMwbaXGkb8_9Z7FO-9" target="-uGRJMwbaXGkb8_9Z7FO-5">
          <mxGeometry width="50" height="50" relative="1" as="geometry">
            <mxPoint x="590" y="220" as="sourcePoint" />
            <mxPoint x="590" y="405" as="targetPoint" />
          </mxGeometry>
        </mxCell>
        <mxCell id="-uGRJMwbaXGkb8_9Z7FO-14" value="2: obtener comentarios publicos" style="text;html=1;align=center;verticalAlign=middle;resizable=0;points=[];autosize=1;strokeColor=none;fillColor=none;" vertex="1" parent="1">
          <mxGeometry x="570" y="170" width="190" height="30" as="geometry" />
        </mxCell>
        <mxCell id="-uGRJMwbaXGkb8_9Z7FO-15" value="&lt;span style=&quot;border: 0px solid; box-sizing: border-box; --tw-border-spacing-x: 0; --tw-border-spacing-y: 0; --tw-translate-x: 0; --tw-translate-y: 0; --tw-rotate: 0; --tw-skew-x: 0; --tw-skew-y: 0; --tw-scale-x: 1; --tw-scale-y: 1; --tw-pan-x: ; --tw-pan-y: ; --tw-pinch-zoom: ; --tw-scroll-snap-strictness: proximity; --tw-gradient-from-position: ; --tw-gradient-via-position: ; --tw-gradient-to-position: ; --tw-ordinal: ; --tw-slashed-zero: ; --tw-numeric-figure: ; --tw-numeric-spacing: ; --tw-numeric-fraction: ; --tw-ring-inset: ; --tw-ring-offset-width: 0px; --tw-ring-offset-color: light-dark(#fff, #000000); --tw-ring-color: hsl(210 70.9% 51.6%/1); --tw-ring-offset-shadow: 0 0 #0000; --tw-ring-shadow: 0 0 #0000; --tw-shadow: 0 0 #0000; --tw-shadow-colored: 0 0 #0000; --tw-blur: ; --tw-brightness: ; --tw-contrast: ; --tw-grayscale: ; --tw-hue-rotate: ; --tw-invert: ; --tw-saturate: ; --tw-sepia: ; --tw-drop-shadow: ; --tw-backdrop-blur: ; --tw-backdrop-brightness: ; --tw-backdrop-contrast: ; --tw-backdrop-grayscale: ; --tw-backdrop-hue-rotate: ; --tw-backdrop-invert: ; --tw-backdrop-opacity: ; --tw-backdrop-saturate: ; --tw-backdrop-sepia: ; --tw-contain-size: ; --tw-contain-layout: ; --tw-contain-paint: ; --tw-contain-style: ; outline-color: rgb(44, 132, 219); scrollbar-width: thin; scrollbar-color: rgba(31, 30, 29, 0.35) rgba(0, 0, 0, 0); color: rgb(56, 58, 66); font-family: jetbrains, &amp;quot;jetbrains Fallback&amp;quot;, Menlo, Monaco, monospace, monospace; font-size: 14px; text-align: left; white-space: pre; background-color: rgb(255, 255, 255);&quot;&gt;3: Consultar Comentarios  &lt;/span&gt;" style="text;html=1;align=center;verticalAlign=middle;whiteSpace=wrap;rounded=0;" vertex="1" parent="1">
          <mxGeometry x="330" y="330" width="39" height="30" as="geometry" />
        </mxCell>
        <mxCell id="-uGRJMwbaXGkb8_9Z7FO-16" style="edgeStyle=none;rounded=0;orthogonalLoop=1;jettySize=auto;html=1;exitX=0.75;exitY=1;exitDx=0;exitDy=0;" edge="1" parent="1" source="-uGRJMwbaXGkb8_9Z7FO-15" target="-uGRJMwbaXGkb8_9Z7FO-15">
          <mxGeometry relative="1" as="geometry" />
        </mxCell>
        <mxCell id="-uGRJMwbaXGkb8_9Z7FO-17" value="" style="endArrow=classic;html=1;rounded=0;" edge="1" parent="1">
          <mxGeometry width="50" height="50" relative="1" as="geometry">
            <mxPoint x="280" y="110" as="sourcePoint" />
            <mxPoint x="360" y="110" as="targetPoint" />
          </mxGeometry>
        </mxCell>
        <mxCell id="-uGRJMwbaXGkb8_9Z7FO-18" value="" style="endArrow=classic;html=1;rounded=0;" edge="1" parent="1">
          <mxGeometry width="50" height="50" relative="1" as="geometry">
            <mxPoint x="550" y="160" as="sourcePoint" />
            <mxPoint x="550" y="220" as="targetPoint" />
          </mxGeometry>
        </mxCell>
        <mxCell id="-uGRJMwbaXGkb8_9Z7FO-19" value="" style="endArrow=classic;html=1;rounded=0;" edge="1" parent="1">
          <mxGeometry width="50" height="50" relative="1" as="geometry">
            <mxPoint x="400" y="300" as="sourcePoint" />
            <mxPoint x="310" y="300" as="targetPoint" />
          </mxGeometry>
        </mxCell>
        <mxCell id="-uGRJMwbaXGkb8_9Z7FO-21" value="" style="endArrow=none;html=1;rounded=0;exitX=0.5;exitY=1;exitDx=0;exitDy=0;entryX=0.75;entryY=1;entryDx=0;entryDy=0;" edge="1" parent="1" source="-uGRJMwbaXGkb8_9Z7FO-9" target="-uGRJMwbaXGkb8_9Z7FO-5">
          <mxGeometry width="50" height="50" relative="1" as="geometry">
            <mxPoint x="220" y="450" as="sourcePoint" />
            <mxPoint x="600" y="440" as="targetPoint" />
            <Array as="points">
              <mxPoint x="120" y="400" />
              <mxPoint x="605" y="400" />
            </Array>
          </mxGeometry>
        </mxCell>
        <mxCell id="-uGRJMwbaXGkb8_9Z7FO-25" value="" style="endArrow=block;dashed=1;endFill=0;endSize=12;html=1;rounded=0;" edge="1" parent="1">
          <mxGeometry width="160" relative="1" as="geometry">
            <mxPoint x="290" y="370" as="sourcePoint" />
            <mxPoint x="399.5" y="370" as="targetPoint" />
          </mxGeometry>
        </mxCell>
        <mxCell id="-uGRJMwbaXGkb8_9Z7FO-26" value="&lt;span style=&quot;color: rgb(56, 58, 66); font-family: jetbrains, &amp;quot;jetbrains Fallback&amp;quot;, Menlo, Monaco, monospace, monospace; font-size: 14px; text-align: left; white-space: pre; background-color: rgb(255, 255, 255);&quot;&gt;4:lista comentarios&lt;/span&gt;" style="text;html=1;align=center;verticalAlign=middle;whiteSpace=wrap;rounded=0;" vertex="1" parent="1">
          <mxGeometry x="319.5" y="400" width="60" height="30" as="geometry" />
        </mxCell>
        <mxCell id="-uGRJMwbaXGkb8_9Z7FO-27" value="" style="endArrow=none;html=1;rounded=0;exitX=1;exitY=0.5;exitDx=0;exitDy=0;entryX=1;entryY=0.25;entryDx=0;entryDy=0;" edge="1" parent="1" source="-uGRJMwbaXGkb8_9Z7FO-5" target="-uGRJMwbaXGkb8_9Z7FO-3">
          <mxGeometry width="50" height="50" relative="1" as="geometry">
            <mxPoint x="670" y="340" as="sourcePoint" />
            <mxPoint x="720" y="290" as="targetPoint" />
            <Array as="points">
              <mxPoint x="800" y="330" />
              <mxPoint x="800" y="80" />
            </Array>
          </mxGeometry>
        </mxCell>
        <mxCell id="-uGRJMwbaXGkb8_9Z7FO-28" value="5:&amp;nbsp;&lt;span style=&quot;color: rgb(56, 58, 66); font-family: jetbrains, &amp;quot;jetbrains Fallback&amp;quot;, Menlo, Monaco, monospace, monospace; font-size: 14px; text-align: left; white-space: pre; background-color: rgb(255, 255, 255);&quot;&gt;mostrar&lt;/span&gt;" style="text;html=1;align=center;verticalAlign=middle;whiteSpace=wrap;rounded=0;" vertex="1" parent="1">
          <mxGeometry x="635" y="220" width="60" height="30" as="geometry" />
        </mxCell>
        <mxCell id="-uGRJMwbaXGkb8_9Z7FO-29" value="" style="endArrow=block;dashed=1;endFill=0;endSize=12;html=1;rounded=0;" edge="1" parent="1">
          <mxGeometry width="160" relative="1" as="geometry">
            <mxPoint x="770" y="260" as="sourcePoint" />
            <mxPoint x="770" y="150" as="targetPoint" />
          </mxGeometry>
        </mxCell>
        <mxCell id="-uGRJMwbaXGkb8_9Z7FO-30" value="" style="endArrow=none;html=1;rounded=0;entryX=0.5;entryY=0;entryDx=0;entryDy=0;" edge="1" parent="1" target="-uGRJMwbaXGkb8_9Z7FO-3">
          <mxGeometry width="50" height="50" relative="1" as="geometry">
            <mxPoint x="130" y="80" as="sourcePoint" />
            <mxPoint x="180" y="20" as="targetPoint" />
            <Array as="points">
              <mxPoint x="130" y="40" />
              <mxPoint x="575" y="40" />
            </Array>
          </mxGeometry>
        </mxCell>
        <mxCell id="-uGRJMwbaXGkb8_9Z7FO-31" value="6:&lt;span style=&quot;color: rgb(56, 58, 66); font-family: jetbrains, &amp;quot;jetbrains Fallback&amp;quot;, Menlo, Monaco, monospace, monospace; font-size: 14px; text-align: left; white-space: pre; background-color: rgb(255, 255, 255);&quot;&gt;presentar lista&lt;/span&gt;" style="text;html=1;align=center;verticalAlign=middle;whiteSpace=wrap;rounded=0;" vertex="1" parent="1">
          <mxGeometry x="300" y="45" width="60" height="30" as="geometry" />
        </mxCell>
        <mxCell id="-uGRJMwbaXGkb8_9Z7FO-32" value="" style="endArrow=block;dashed=1;endFill=0;endSize=12;html=1;rounded=0;" edge="1" parent="1">
          <mxGeometry width="160" relative="1" as="geometry">
            <mxPoint x="390" y="20" as="sourcePoint" />
            <mxPoint x="270" y="20" as="targetPoint" />
          </mxGeometry>
        </mxCell>
      </root>
    </mxGraphModel>
  </diagram>
</mxfile>
